# xmcd
#
# Track frame offsets:
# 150
# 16551
# 33622
# 45633
# 61274
# 77995
# 90301
# 104194
# 121327
# 137170
# 155519
# 170723
# 188061
# 200810
# 217219
# 234631
# 255717
# 267606
# 281595
#
# Disc length: 3918 seconds
#
#
# Revision: 0
# Processed by: cddbd v1.5.2PL0 Copyright (c) Steve Scherf et al.
# Submitted via: FreeRIP 2.944 
#
DISCID=200f4c13
DTITLE=Varios - Viola Lascada
DYEAR=1900
DGENRE=Sertanejo
TTITLE0=O doutor e o caipira- Goiano e Paranaense
TTITLE1=Cego arrependido-Leide e Laura
TTITLE2=Cenário do meu sertão-Zé mineiro e Mirandinha
TTITLE3=Meu reino encantado-Lourenço e Lorival
TTITLE4=João Boiadeiro-Moreno e Moreninho
TTITLE5=Caboclo centenário-Dino Franco e Mourai
TTITLE6=Encantos da Natureza-Tião Carreiro  e Pardinho
TTITLE7=Couro de Boi-Palmeira e Bia
TTITLE8=Relógio Quebrado-Nestor e nestorzinho
TTITLE9=Velha Porteira-Lourenço e Lorival
TTITLE10=Caboclinho Valente-Ronaldo viola e João Carvalho
TTITLE11=Carreiro do Sertão-Goiano e Paranaense
TTITLE12=Genro Folgaldo-Camões e Camargo
TTITLE13=Sangue do Mendigo-Executivo e Lavrador
TTITLE14=Milagre de Nossa Senhora-Felipe e Falcão
TTITLE15=Voileiro Marciano-Zé Mulato e Cassiano
TTITLE16=Plantação de Maconha-Dino Franco e Mourai
TTITLE17=Genro Advogado-Jacó e Jacózinho
TTITLE18=Bilhete Premiado-Executivo e Lavrador
EXTD=
EXTT0=
EXTT1=
EXTT2=
EXTT3=
EXTT4=
EXTT5=
EXTT6=
EXTT7=
EXTT8=
EXTT9=
EXTT10=
EXTT11=
EXTT12=
EXTT13=
EXTT14=
EXTT15=
EXTT16=
EXTT17=
EXTT18=
PLAYORDER=
